<svg width="55" height="55" viewBox="0 0 55 55" fill="none" xmlns="http://www.w3.org/2000/svg">
<circle cx="27.5" cy="27.5" r="27.5" fill="white"/>
<path d="M27 17.9853C21.458 17.9853 16.9853 22.458 16.9853 28C16.9853 33.542 21.458 38.0146 27 38.0146C32.542 38.0146 37.0146 33.542 37.0146 28C37.0146 22.458 32.542 17.9853 27 17.9853ZM27 34.5088C23.416 34.5088 20.4912 31.584 20.4912 28C20.4912 24.416 23.416 21.4912 27 21.4912C30.584 21.4912 33.5088 24.416 33.5088 28C33.5088 31.584 30.584 34.5088 27 34.5088ZM37.4248 15.2412C36.1308 15.2412 35.0859 16.2861 35.0859 17.5801C35.0859 18.874 36.1308 19.9189 37.4248 19.9189C38.7187 19.9189 39.7637 18.8789 39.7637 17.5801C39.764 17.2728 39.7038 16.9685 39.5864 16.6846C39.469 16.4006 39.2967 16.1426 39.0795 15.9254C38.8622 15.7081 38.6042 15.5359 38.3203 15.4184C38.0364 15.301 37.732 15.2408 37.4248 15.2412ZM46.5215 28C46.5215 25.3047 46.5459 22.6338 46.3945 19.9433C46.2432 16.8183 45.5303 14.0449 43.2451 11.7598C40.9551 9.46971 38.1865 8.76171 35.0615 8.61034C32.3662 8.45897 29.6953 8.48339 27.0049 8.48339C24.3096 8.48339 21.6387 8.45897 18.9482 8.61034C15.8232 8.76171 13.0498 9.4746 10.7646 11.7598C8.4746 14.0498 7.76659 16.8183 7.61522 19.9433C7.46385 22.6387 7.48827 25.3096 7.48827 28C7.48827 30.6904 7.46385 33.3662 7.61522 36.0566C7.76659 39.1816 8.47948 41.9551 10.7646 44.2402C13.0547 46.5303 15.8232 47.2383 18.9482 47.3896C21.6435 47.541 24.3144 47.5166 27.0049 47.5166C29.7002 47.5166 32.3711 47.541 35.0615 47.3896C38.1865 47.2383 40.9599 46.5254 43.2451 44.2402C45.5351 41.9502 46.2432 39.1816 46.3945 36.0566C46.5508 33.3662 46.5215 30.6953 46.5215 28ZM42.2246 39.5137C41.8682 40.4023 41.4385 41.0664 40.75 41.75C40.0615 42.4385 39.4023 42.8681 38.5137 43.2246C35.9453 44.2451 29.8467 44.0156 27 44.0156C24.1533 44.0156 18.0498 44.2451 15.4814 43.2295C14.5928 42.873 13.9287 42.4433 13.2451 41.7549C12.5566 41.0664 12.1269 40.4072 11.7705 39.5185C10.7549 36.9453 10.9844 30.8467 10.9844 28C10.9844 25.1533 10.7549 19.0498 11.7705 16.4814C12.1269 15.5928 12.5566 14.9287 13.2451 14.2451C13.9336 13.5615 14.5928 13.1269 15.4814 12.7705C18.0498 11.7549 24.1533 11.9844 27 11.9844C29.8467 11.9844 35.9502 11.7549 38.5185 12.7705C39.4072 13.1269 40.0713 13.5566 40.7549 14.2451C41.4433 14.9336 41.873 15.5928 42.2295 16.4814C43.2451 19.0498 43.0156 25.1533 43.0156 28C43.0156 30.8467 43.2451 36.9453 42.2246 39.5137Z" fill="#3974E7"/>
</svg>
