<svg width="55" height="55" viewBox="0 0 55 55" fill="none" xmlns="http://www.w3.org/2000/svg">
<circle cx="27.5" cy="27.5" r="27.5" fill="white"/>
<path d="M43.8641 18.7107C44.1033 17.9163 43.8641 17.3337 42.7332 17.3337H38.9868C38.0336 17.3337 37.5979 17.8377 37.3588 18.3912C37.3588 18.3912 35.454 23.0362 32.7548 26.0479C31.8836 26.9243 31.4855 27.2011 31.0106 27.2011C30.7732 27.2011 30.4281 26.9243 30.4281 26.1299V18.7107C30.4281 17.7574 30.153 17.3337 29.3587 17.3337H23.4717C22.8772 17.3337 22.5185 17.7745 22.5185 18.1947C22.5185 19.0967 23.8681 19.3052 24.0064 21.8472V27.3617C24.0064 28.5694 23.7895 28.7898 23.3112 28.7898C22.0419 28.7898 18.9532 24.1278 17.1202 18.7909C16.7631 17.754 16.4027 17.3354 15.446 17.3354H11.7013C10.6302 17.3354 10.4167 17.8394 10.4167 18.3929C10.4167 19.3872 11.6859 24.3072 16.3292 30.8142C19.4247 35.2576 23.7827 37.6663 27.7528 37.6663C30.1325 37.6663 30.4264 37.1316 30.4264 36.2091V32.8505C30.4264 31.7811 30.6536 31.5659 31.4069 31.5659C31.9604 31.5659 32.9137 31.846 35.1362 33.9866C37.6748 36.5252 38.0951 37.6646 39.5215 37.6646H43.2662C44.3356 37.6646 44.8703 37.1299 44.5628 36.0742C44.2263 35.0235 43.0134 33.4946 41.4041 31.6854C40.5294 30.6536 39.2226 29.5432 38.8245 28.988C38.2693 28.2722 38.4299 27.9562 38.8245 27.3207C38.8262 27.3224 43.3892 20.8956 43.8641 18.7107V18.7107Z" fill="#3974E7"/>
</svg>
